<svg xmlns="http://www.w3.org/2000/svg" width="215" height="49" viewBox="0 0 107.5 24.5"><path d="M99.09015 12.661c0-2.015 1.703-2.801 4.553-2.801h.819v-.196c0-.819-.196-1.36-1.13-1.36-.802 0-1.098.475-1.163 1.016h-2.751c.131-2.064 1.752-3.08 4.095-3.08 2.358 0 3.865.966 3.865 3.243v5.553h-2.85v-.999c-.41.622-1.163 1.196-2.539 1.196-1.539 0-2.899-.754-2.899-2.572m5.372-.622v-.524h-.769c-1.18 0-1.704.228-1.704.933 0 .492.327.803 1.015.803.836 0 1.458-.476 1.458-1.212m-10.936.245V8.468h-1.032V6.47h1.032V4.685h2.932V6.47h1.687v1.998h-1.687v3.538c0 .622.31.9.868.9.327 0 .573-.048.835-.147v2.228c-.376.098-.934.246-1.622.246-1.933 0-3.013-.934-3.013-2.949m-10.401-1.425v-.131c0-2.85 2.047-4.487 4.57-4.487 2.096 0 4.029.917 4.193 3.521h-2.752c-.131-.803-.524-1.245-1.376-1.245-1.032 0-1.637.737-1.637 2.178v.132c0 1.49.573 2.26 1.686 2.26.82 0 1.393-.491 1.491-1.425h2.637c-.082 2.161-1.54 3.571-4.308 3.571-2.555 0-4.504-1.491-4.504-4.374m-9.872 0v-.131c0-2.752 2.047-4.487 4.635-4.487 2.343 0 4.357 1.342 4.357 4.422v.769h-6.027c.082 1.131.736 1.786 1.785 1.786.966 0 1.376-.443 1.491-1.016h2.751c-.262 1.933-1.753 3.031-4.34 3.031-2.687 0-4.652-1.572-4.652-4.374m6.142-1.081c-.049-1.031-.557-1.605-1.507-1.605-.884 0-1.49.574-1.638 1.605zm-16.292-3.308h2.932v1.277c.491-.819 1.376-1.507 2.669-1.507 1.999 0 3.62 1.507 3.62 4.439v.132c0 2.947-1.621 4.422-3.636 4.422-1.294 0-2.228-.606-2.653-1.458v4.127h-2.932zm6.24 4.341v-.132c0-1.507-.655-2.228-1.687-2.228-1.064 0-1.704.77-1.704 2.211v.132c0 1.457.64 2.195 1.704 2.195 1.097 0 1.687-.77 1.687-2.178m-15.249 1.506h2.703c.098.622.376.966 1.211.966.721 0 1.049-.278 1.049-.704 0-.409-.409-.606-1.589-.77-2.293-.294-3.259-.967-3.259-2.752 0-1.899 1.687-2.816 3.669-2.816 2.112 0 3.587.72 3.783 2.767h-2.653c-.115-.573-.426-.851-1.098-.851-.639 0-.966.278-.966.671 0 .409.393.574 1.441.705 2.375.294 3.521.917 3.521 2.751 0 2.031-1.506 2.949-3.881 2.949-2.441 0-3.866-1.016-3.931-2.916m-6.437-5.847h2.932v1.703c.541-1.278 1.441-1.834 2.768-1.818V9.09c-1.786-.049-2.768.508-2.768 1.884v4.062h-2.932zm-10.254 4.389v-.131c0-2.752 2.047-4.487 4.636-4.487 2.342 0 4.357 1.342 4.357 4.422v.769h-6.028c.082 1.131.737 1.786 1.785 1.786.967 0 1.377-.443 1.491-1.016h2.752c-.262 1.933-1.752 3.031-4.341 3.031-2.686 0-4.652-1.572-4.652-4.374m6.142-1.081c-.048-1.031-.556-1.605-1.506-1.605-.884 0-1.49.574-1.638 1.605zm-16.292-3.308h2.932v1.277c.492-.819 1.376-1.507 2.67-1.507 1.998 0 3.62 1.507 3.62 4.439v.132c0 2.947-1.622 4.422-3.637 4.422-1.293 0-2.227-.606-2.653-1.458v4.127h-2.932zm6.241 4.341v-.132c0-1.507-.656-2.228-1.687-2.228-1.065 0-1.704.77-1.704 2.211v.132c0 1.457.639 2.195 1.704 2.195 1.097 0 1.687-.77 1.687-2.178m65.596 1.85c0-2.015 1.703-2.801 4.553-2.801h.819v-.196c0-.819-.196-1.36-1.13-1.36-.802 0-1.098.475-1.163 1.016h-2.751c.131-2.064 1.752-3.08 4.095-3.08 2.358 0 3.865.966 3.865 3.243v5.553h-2.85v-.999c-.41.622-1.163 1.196-2.539 1.196-1.539 0-2.899-.754-2.899-2.572m5.372-.622v-.524h-.769c-1.18 0-1.704.228-1.704.933 0 .492.327.803 1.015.803.836 0 1.458-.476 1.458-1.212m-10.936.245V8.468h-1.032V6.47h1.032V4.685h2.932V6.47h1.687v1.998h-1.687v3.538c0 .622.31.9.868.9.327 0 .573-.048.835-.147v2.228c-.376.098-.934.246-1.622.246-1.933 0-3.013-.934-3.013-2.949m-10.401-1.425v-.131c0-2.85 2.047-4.487 4.57-4.487 2.096 0 4.029.917 4.193 3.521h-2.752c-.131-.803-.524-1.245-1.376-1.245-1.032 0-1.637.737-1.637 2.178v.132c0 1.49.573 2.26 1.686 2.26.82 0 1.393-.491 1.491-1.425h2.637c-.082 2.161-1.54 3.571-4.308 3.571-2.555 0-4.504-1.491-4.504-4.374m-9.872 0v-.131c0-2.752 2.047-4.487 4.635-4.487 2.343 0 4.357 1.342 4.357 4.422v.769h-6.027c.082 1.131.736 1.786 1.785 1.786.966 0 1.376-.443 1.491-1.016h2.751c-.262 1.933-1.753 3.031-4.34 3.031-2.687 0-4.652-1.572-4.652-4.374m6.142-1.081c-.049-1.031-.557-1.605-1.507-1.605-.884 0-1.49.574-1.638 1.605zm-16.292-3.308h2.932v1.277c.491-.819 1.376-1.507 2.669-1.507 1.999 0 3.62 1.507 3.62 4.439v.132c0 2.947-1.621 4.422-3.636 4.422-1.294 0-2.228-.606-2.653-1.458v4.127h-2.932zm6.24 4.341v-.132c0-1.507-.655-2.228-1.687-2.228-1.064 0-1.704.77-1.704 2.211v.132c0 1.457.64 2.195 1.704 2.195 1.097 0 1.687-.77 1.687-2.178m-15.249 1.506h2.703c.098.622.376.966 1.211.966.721 0 1.049-.278 1.049-.704 0-.409-.409-.606-1.589-.77-2.293-.294-3.259-.967-3.259-2.752 0-1.899 1.687-2.816 3.669-2.816 2.112 0 3.587.72 3.783 2.767h-2.653c-.115-.573-.426-.851-1.098-.851-.639 0-.966.278-.966.671 0 .409.393.574 1.441.705 2.375.294 3.521.917 3.521 2.751 0 2.031-1.506 2.949-3.881 2.949-2.441 0-3.866-1.016-3.931-2.916m-6.437-5.847h2.932v1.703c.541-1.278 1.441-1.834 2.768-1.818V9.09c-1.786-.049-2.768.508-2.768 1.884v4.062h-2.932zm-10.254 4.389v-.131c0-2.752 2.047-4.487 4.636-4.487 2.342 0 4.357 1.342 4.357 4.422v.769h-6.028c.082 1.131.737 1.786 1.785 1.786.967 0 1.377-.443 1.491-1.016h2.752c-.262 1.933-1.752 3.031-4.341 3.031-2.686 0-4.652-1.572-4.652-4.374m6.142-1.081c-.048-1.031-.556-1.605-1.506-1.605-.884 0-1.49.574-1.638 1.605zm-16.292-3.308h2.932v1.277c.492-.819 1.376-1.507 2.67-1.507 1.998 0 3.62 1.507 3.62 4.439v.132c0 2.947-1.622 4.422-3.637 4.422-1.293 0-2.227-.606-2.653-1.458v4.127h-2.932zm6.241 4.341v-.132c0-1.507-.656-2.228-1.687-2.228-1.065 0-1.704.77-1.704 2.211v.132c0 1.457.639 2.195 1.704 2.195 1.097 0 1.687-.77 1.687-2.178"/><path fill="#0089cf" d="M.65485 24.463h2.771l2.64-5.393c-.771-.338-1.489-.772-2.143-1.286Zm9.402-24.426c5.487 0 9.935 4.448 9.935 9.935s-4.448 9.935-9.935 9.935c-1.42 0-2.769-.3-3.992-.837l3.846-7.857h-2.772l-3.216 6.571c-2.314-1.818-3.801-4.64-3.801-7.812 0-5.487 4.448-9.935 9.935-9.935"/></svg>